<svg xmlns="http://www.w3.org/2000/svg" viewBox="0 0 400 450" fill="none">
  <defs>
    <linearGradient id="copper" x1="50%" y1="0%" x2="50%" y2="100%">
      <stop offset="0%" stop-color="#D4893A"/>
      <stop offset="50%" stop-color="#B75F19"/>
      <stop offset="100%" stop-color="#8B4513"/>
    </linearGradient>
    <linearGradient id="text-grad" x1="50%" y1="0%" x2="50%" y2="100%">
      <stop offset="0%" stop-color="#D4893A"/>
      <stop offset="40%" stop-color="#B75F19"/>
      <stop offset="100%" stop-color="#6B3410"/>
    </linearGradient>
    <linearGradient id="body-grad" x1="50%" y1="0%" x2="50%" y2="100%">
      <stop offset="0%" stop-color="#C9802A"/>
      <stop offset="100%" stop-color="#A06020"/>
    </linearGradient>
  </defs>

  <!-- Outer circle ring -->
  <circle cx="200" cy="190" r="172" stroke="url(#copper)" stroke-width="2.5" fill="none"/>

  <!-- Connection nodes on circle: top, right, bottom-right, bottom-left, left -->
  <circle cx="200" cy="18" r="8" stroke="url(#copper)" stroke-width="2" fill="none"/>
  <circle cx="372" cy="190" r="8" stroke="url(#copper)" stroke-width="2" fill="none"/>
  <circle cx="322" cy="339" r="8" stroke="url(#copper)" stroke-width="2" fill="none"/>
  <circle cx="78" cy="339" r="8" stroke="url(#copper)" stroke-width="2" fill="none"/>
  <circle cx="28" cy="190" r="8" stroke="url(#copper)" stroke-width="2" fill="none"/>

  <!-- Human silhouette -->
  <!-- Head -->
  <ellipse cx="200" cy="72" rx="24" ry="27" fill="url(#body-grad)"/>

  <!-- Neck -->
  <rect x="191" y="97" width="18" height="14" rx="4" fill="url(#body-grad)"/>

  <!-- Torso -->
  <path d="
    M168 111
    C160 115, 148 130, 145 150
    C142 170, 143 195, 148 220
    L155 220
    C152 200, 150 175, 152 155
    C154 140, 160 125, 168 118
    Z
  " fill="url(#body-grad)"/>
  <path d="
    M232 111
    C240 115, 252 130, 255 150
    C258 170, 257 195, 252 220
    L245 220
    C248 200, 250 175, 248 155
    C246 140, 240 125, 232 118
    Z
  " fill="url(#body-grad)"/>
  <!-- Torso center fill -->
  <rect x="168" y="111" width="64" height="112" rx="6" fill="url(#body-grad)"/>

  <!-- Shoulders -->
  <path d="M168 111 C158 113, 142 120, 130 132 L136 138 C145 128, 157 120, 168 117 Z" fill="url(#body-grad)"/>
  <path d="M232 111 C242 113, 258 120, 270 132 L264 138 C255 128, 243 120, 232 117 Z" fill="url(#body-grad)"/>

  <!-- Left arm -->
  <path d="
    M130 132
    C122 142, 115 160, 112 180
    C109 200, 110 220, 115 238
    C117 248, 118 255, 116 265
    L108 268
    C104 258, 103 248, 107 235
    C100 215, 100 195, 104 175
    C108 155, 115 138, 125 128
    Z
  " fill="url(#body-grad)"/>

  <!-- Left hand with fingers spread -->
  <path d="
    M108 268
    L100 282 L96 280 L104 266
    M108 268
    L97 286 L93 284 L103 268
    M108 268
    L96 290 L92 288 L102 270
    M108 268
    L98 294 L94 292 L104 274
    M108 268
    L103 296 L99 294 L106 276
  " stroke="url(#body-grad)" stroke-width="3" stroke-linecap="round" fill="none"/>
  <!-- Hand palm -->
  <ellipse cx="108" cy="270" rx="10" ry="8" fill="url(#body-grad)"/>

  <!-- Right arm -->
  <path d="
    M270 132
    C278 142, 285 160, 288 180
    C291 200, 290 220, 285 238
    C283 248, 282 255, 284 265
    L292 268
    C296 258, 297 248, 293 235
    C300 215, 300 195, 296 175
    C292 155, 285 138, 275 128
    Z
  " fill="url(#body-grad)"/>

  <!-- Right hand with fingers spread -->
  <path d="
    M292 268
    L300 282 L304 280 L296 266
    M292 268
    L303 286 L307 284 L297 268
    M292 268
    L304 290 L308 288 L298 270
    M292 268
    L302 294 L306 292 L296 274
    M292 268
    L297 296 L301 294 L294 276
  " stroke="url(#body-grad)" stroke-width="3" stroke-linecap="round" fill="none"/>
  <!-- Hand palm -->
  <ellipse cx="292" cy="270" rx="10" ry="8" fill="url(#body-grad)"/>

  <!-- Hips / Pelvis -->
  <path d="M168 223 C165 230, 162 240, 170 250 L180 250 L200 245 L220 250 L230 250 C238 240, 235 230, 232 223 Z" fill="url(#body-grad)"/>

  <!-- Left leg -->
  <path d="M170 250 C168 270, 172 300, 178 330 C180 345, 182 355, 185 365 L195 365 C192 355, 190 345, 188 330 C185 305, 183 275, 185 255 L200 250 Z" fill="url(#body-grad)"/>

  <!-- Right leg -->
  <path d="M230 250 C232 270, 228 300, 222 330 C220 345, 218 355, 215 365 L205 365 C208 355, 210 345, 212 330 C215 305, 217 275, 215 255 L200 250 Z" fill="url(#body-grad)"/>

  <!-- DNA Double Helix through body -->
  <!-- Left strand -->
  <path d="
    M188 100
    C178 115, 212 135, 188 155
    C178 170, 212 190, 188 210
    C178 225, 212 245, 188 265
    C178 280, 212 300, 188 320
    C178 335, 200 350, 192 360
  " stroke="#111827" stroke-width="2.5" fill="none" stroke-linecap="round"/>
  <!-- Right strand -->
  <path d="
    M212 100
    C222 115, 188 135, 212 155
    C222 170, 188 190, 212 210
    C222 225, 188 245, 212 265
    C222 280, 188 300, 212 320
    C222 335, 200 350, 208 360
  " stroke="#111827" stroke-width="2.5" fill="none" stroke-linecap="round"/>

  <!-- DNA rungs with dot ends -->
  <!-- Each rung is a line with circles at both ends -->
  <g stroke="#111827" stroke-width="2" fill="#111827">
    <line x1="190" y1="112" x2="210" y2="112"/>
    <circle cx="189" cy="112" r="2.5" stroke="none"/><circle cx="211" cy="112" r="2.5" stroke="none"/>

    <line x1="185" y1="125" x2="215" y2="125"/>
    <circle cx="184" cy="125" r="2.5" stroke="none"/><circle cx="216" cy="125" r="2.5" stroke="none"/>

    <line x1="186" y1="138" x2="214" y2="138"/>
    <circle cx="185" cy="138" r="2.5" stroke="none"/><circle cx="215" cy="138" r="2.5" stroke="none"/>

    <line x1="192" y1="152" x2="208" y2="152"/>
    <circle cx="191" cy="152" r="2.5" stroke="none"/><circle cx="209" cy="152" r="2.5" stroke="none"/>

    <line x1="185" y1="165" x2="215" y2="165"/>
    <circle cx="184" cy="165" r="2.5" stroke="none"/><circle cx="216" cy="165" r="2.5" stroke="none"/>

    <line x1="188" y1="178" x2="212" y2="178"/>
    <circle cx="187" cy="178" r="2.5" stroke="none"/><circle cx="213" cy="178" r="2.5" stroke="none"/>

    <line x1="186" y1="192" x2="214" y2="192"/>
    <circle cx="185" cy="192" r="2.5" stroke="none"/><circle cx="215" cy="192" r="2.5" stroke="none"/>

    <line x1="185" y1="205" x2="215" y2="205"/>
    <circle cx="184" cy="205" r="2.5" stroke="none"/><circle cx="216" cy="205" r="2.5" stroke="none"/>

    <line x1="190" y1="218" x2="210" y2="218"/>
    <circle cx="189" cy="218" r="2.5" stroke="none"/><circle cx="211" cy="218" r="2.5" stroke="none"/>

    <line x1="185" y1="232" x2="215" y2="232"/>
    <circle cx="184" cy="232" r="2.5" stroke="none"/><circle cx="216" cy="232" r="2.5" stroke="none"/>

    <line x1="187" y1="245" x2="213" y2="245"/>
    <circle cx="186" cy="245" r="2.5" stroke="none"/><circle cx="214" cy="245" r="2.5" stroke="none"/>

    <line x1="192" y1="258" x2="208" y2="258"/>
    <circle cx="191" cy="258" r="2.5" stroke="none"/><circle cx="209" cy="258" r="2.5" stroke="none"/>

    <line x1="185" y1="272" x2="215" y2="272"/>
    <circle cx="184" cy="272" r="2.5" stroke="none"/><circle cx="216" cy="272" r="2.5" stroke="none"/>

    <line x1="188" y1="285" x2="212" y2="285"/>
    <circle cx="187" cy="285" r="2.5" stroke="none"/><circle cx="213" cy="285" r="2.5" stroke="none"/>

    <line x1="186" y1="298" x2="214" y2="298"/>
    <circle cx="185" cy="298" r="2.5" stroke="none"/><circle cx="215" cy="298" r="2.5" stroke="none"/>

    <line x1="190" y1="312" x2="210" y2="312"/>
    <circle cx="189" cy="312" r="2.5" stroke="none"/><circle cx="211" cy="312" r="2.5" stroke="none"/>

    <line x1="185" y1="325" x2="215" y2="325"/>
    <circle cx="184" cy="325" r="2.5" stroke="none"/><circle cx="216" cy="325" r="2.5" stroke="none"/>

    <line x1="190" y1="338" x2="210" y2="338"/>
    <circle cx="189" cy="338" r="2.5" stroke="none"/><circle cx="211" cy="338" r="2.5" stroke="none"/>

    <line x1="193" y1="350" x2="207" y2="350"/>
    <circle cx="192" cy="350" r="2.5" stroke="none"/><circle cx="208" cy="350" r="2.5" stroke="none"/>
  </g>

  <!-- ViaConnect text -->
  <text x="200" y="430" text-anchor="middle" font-family="Arial Black, Impact, sans-serif" font-size="50" font-weight="900" fill="url(#text-grad)" letter-spacing="1">ViaConnect</text>
</svg>
